<svg id="Layer_1" data-name="Layer 1" xmlns="http://www.w3.org/2000/svg" viewBox="0 0 215.95 215.95"><defs><style>.cls-1{fill:#192941;}.cls-2{fill:#8ba4cb;}</style></defs><title>zero-logo</title><circle class="cls-1" cx="107.97" cy="107.97" r="107.97"/><path class="cls-2" d="M81.88,134.36v9.87H51.43V142l14.25-26.39H52.36v-9.87H81.22v2.39L67,134.36H81.88Z" transform="translate(-17.03 -17.03)"/><path class="cls-2" d="M113.19,135v9.19H88.11V105.77h24.61v9.16H98.66v5.66h12.63v8.69H98.66V135h14.53Z" transform="translate(-17.03 -17.03)"/><path class="cls-2" d="M134.8,132.46H131v11.77h-10.6V105.77H137c8.29,0,14.3,5.57,14.3,13.61a12.32,12.32,0,0,1-6.11,10.86l7.64,14H141ZM131,123.54h4.84c3,0,4.67-1.78,4.67-4.19s-1.71-4.16-4.67-4.16H131v8.35Z" transform="translate(-17.03 -17.03)"/><path class="cls-2" d="M206.2,107a2.91,2.91,0,0,1,1.1,1.1,3.21,3.21,0,0,1,0,3.12,3,3,0,0,1-1.12,1.12,3.17,3.17,0,0,1-3.12,0,3,3,0,0,1-1.11-1.12,3.17,3.17,0,0,1,0-3.1,3,3,0,0,1,1.11-1.12A3.23,3.23,0,0,1,206.2,107Zm-0.31,4.85a2.42,2.42,0,0,0,.9-0.92,2.68,2.68,0,0,0,0-2.55,2.34,2.34,0,0,0-.89-0.89,2.5,2.5,0,0,0-1.27-.33,2.47,2.47,0,0,0-1.27.33,2.37,2.37,0,0,0-.89.91,2.67,2.67,0,0,0,0,2.55,2.39,2.39,0,0,0,.88.91A2.56,2.56,0,0,0,205.89,111.85Zm0.05-2a1,1,0,0,1-.43.37l0.67,1h-0.82l-0.57-.88h-0.54v0.88h-0.82v-3.05h1.33a1.48,1.48,0,0,1,1,.3,1,1,0,0,1,.35.79A1.08,1.08,0,0,1,205.94,109.81Zm-1.24-.1a0.67,0.67,0,0,0,.43-0.12,0.42,0.42,0,0,0,.15-0.35,0.43,0.43,0,0,0-.15-0.35,0.65,0.65,0,0,0-.43-0.13h-0.46v1h0.46Z" transform="translate(-17.03 -17.03)"/><path class="cls-2" d="M177.86,102a23,23,0,1,0,23,23A23,23,0,0,0,177.86,102Zm5.88,16a8.06,8.06,0,0,1,4.82,1.41,1.49,1.49,0,0,1,.31,2.19,1.46,1.46,0,0,1-1.86.05,5.32,5.32,0,0,0-3.17-.93,5.23,5.23,0,0,0-2.77.93l-1.55-2.24A8,8,0,0,1,183.74,118Zm-11.34-1.58a3.15,3.15,0,1,1-3.15,3.15A3.15,3.15,0,0,1,172.41,116.4Zm5.08,22.9a14.58,14.58,0,0,1-10.88-4.42c0.53-.82,1.16-1.59,1.75-2.33l1.52-1.93a15.59,15.59,0,0,0,7.61,1.88,14.67,14.67,0,0,0,10.27-3.83,4.63,4.63,0,0,0,3.13,1.23c0.12,0,.23,0,0.35,0C189.5,135.54,184.29,139.3,177.49,139.3Z" transform="translate(-17.03 -17.03)"/></svg>